<mxfile host="app.diagrams.net" agent="Mozilla/5.0 (Windows NT 10.0; Win64; x64) AppleWebKit/537.36 (KHTML, like Gecko) Chrome/135.0.0.0 Safari/537.36" version="27.0.2">
  <diagram name="페이지-1" id="w0foqrvD61_c_iNWE-gH">
    <mxGraphModel dx="1152" dy="2110" grid="1" gridSize="10" guides="1" tooltips="1" connect="1" arrows="1" fold="1" page="1" pageScale="1" pageWidth="827" pageHeight="1169" math="0" shadow="0">
      <root>
        <mxCell id="0" />
        <mxCell id="1" parent="0" />
        <mxCell id="i5hhmeobfidiu1D_hB9L-9" value="Environment" style="swimlane;fontStyle=1;align=center;verticalAlign=top;childLayout=stackLayout;horizontal=1;startSize=26;horizontalStack=0;resizeParent=1;resizeParentMax=0;resizeLast=0;collapsible=1;marginBottom=0;whiteSpace=wrap;html=1;" vertex="1" parent="1">
          <mxGeometry x="335" y="90" width="200" height="200" as="geometry" />
        </mxCell>
        <mxCell id="i5hhmeobfidiu1D_hB9L-10" value="- grid[6][6]: struct Cell&lt;div&gt;- isScream : bool&lt;/div&gt;" style="text;strokeColor=none;fillColor=none;align=left;verticalAlign=top;spacingLeft=4;spacingRight=4;overflow=hidden;rotatable=0;points=[[0,0.5],[1,0.5]];portConstraint=eastwest;whiteSpace=wrap;html=1;" vertex="1" parent="i5hhmeobfidiu1D_hB9L-9">
          <mxGeometry y="26" width="200" height="54" as="geometry" />
        </mxCell>
        <mxCell id="i5hhmeobfidiu1D_hB9L-11" value="" style="line;strokeWidth=1;fillColor=none;align=left;verticalAlign=middle;spacingTop=-1;spacingLeft=3;spacingRight=3;rotatable=0;labelPosition=right;points=[];portConstraint=eastwest;strokeColor=inherit;" vertex="1" parent="i5hhmeobfidiu1D_hB9L-9">
          <mxGeometry y="80" width="200" height="10" as="geometry" />
        </mxCell>
        <mxCell id="i5hhmeobfidiu1D_hB9L-12" value="&lt;div&gt;+ Environment: 생성자&lt;/div&gt;+ initialize: void&lt;div&gt;&lt;div&gt;+ getCellInfo: Cell&lt;/div&gt;&lt;/div&gt;&lt;div&gt;+ getPercept: Percept&lt;/div&gt;&lt;div&gt;+ shootArrow() : bol&lt;/div&gt;&lt;div&gt;##출력용&lt;/div&gt;&lt;div&gt;+ printGrid: void&lt;/div&gt;" style="text;strokeColor=none;fillColor=none;align=left;verticalAlign=top;spacingLeft=4;spacingRight=4;overflow=hidden;rotatable=0;points=[[0,0.5],[1,0.5]];portConstraint=eastwest;whiteSpace=wrap;html=1;" vertex="1" parent="i5hhmeobfidiu1D_hB9L-9">
          <mxGeometry y="90" width="200" height="110" as="geometry" />
        </mxCell>
        <mxCell id="i5hhmeobfidiu1D_hB9L-26" style="edgeStyle=orthogonalEdgeStyle;rounded=0;orthogonalLoop=1;jettySize=auto;html=1;exitX=0.25;exitY=0;exitDx=0;exitDy=0;entryX=0.75;entryY=0;entryDx=0;entryDy=0;" edge="1" parent="1" source="i5hhmeobfidiu1D_hB9L-18" target="i5hhmeobfidiu1D_hB9L-9">
          <mxGeometry relative="1" as="geometry" />
        </mxCell>
        <mxCell id="i5hhmeobfidiu1D_hB9L-18" value="Agent" style="swimlane;fontStyle=1;align=center;verticalAlign=top;childLayout=stackLayout;horizontal=1;startSize=26;horizontalStack=0;resizeParent=1;resizeParentMax=0;resizeLast=0;collapsible=1;marginBottom=0;whiteSpace=wrap;html=1;" vertex="1" parent="1">
          <mxGeometry x="630" y="90" width="190" height="460" as="geometry" />
        </mxCell>
        <mxCell id="i5hhmeobfidiu1D_hB9L-19" value="&lt;div&gt;## 위치/방향&lt;/div&gt;&lt;div&gt;- location : struct Location&lt;/div&gt;&lt;div&gt;&lt;div&gt;- direction : &amp;lt;&amp;lt;enum&amp;gt;&amp;gt; Direction&lt;/div&gt;&lt;div&gt;&lt;br&gt;&lt;/div&gt;&lt;/div&gt;- arrows: int&lt;div&gt;- hasgold: bool&lt;/div&gt;&lt;div&gt;&lt;br&gt;&lt;/div&gt;&lt;div&gt;## 내부 모델&lt;/div&gt;&lt;div&gt;- isAlive : bool&lt;/div&gt;&lt;div&gt;- visited[6][6] : bool&lt;br&gt;&lt;div&gt;- possibleWumpus[6][6] : int&amp;nbsp;&lt;/div&gt;&lt;/div&gt;&lt;div&gt;- possiblePit[6][6] : int&lt;/div&gt;" style="text;strokeColor=none;fillColor=none;align=left;verticalAlign=top;spacingLeft=4;spacingRight=4;overflow=hidden;rotatable=0;points=[[0,0.5],[1,0.5]];portConstraint=eastwest;whiteSpace=wrap;html=1;" vertex="1" parent="i5hhmeobfidiu1D_hB9L-18">
          <mxGeometry y="26" width="190" height="171" as="geometry" />
        </mxCell>
        <mxCell id="i5hhmeobfidiu1D_hB9L-20" value="" style="line;strokeWidth=1;fillColor=none;align=left;verticalAlign=middle;spacingTop=-1;spacingLeft=3;spacingRight=3;rotatable=0;labelPosition=right;points=[];portConstraint=eastwest;strokeColor=inherit;" vertex="1" parent="i5hhmeobfidiu1D_hB9L-18">
          <mxGeometry y="197" width="190" height="8" as="geometry" />
        </mxCell>
        <mxCell id="i5hhmeobfidiu1D_hB9L-21" value="&lt;div&gt;&lt;span style=&quot;background-color: transparent; color: light-dark(rgb(0, 0, 0), rgb(255, 255, 255));&quot;&gt;+ Agent: 생성자&lt;/span&gt;&lt;/div&gt;&lt;div&gt;&lt;br&gt;&lt;/div&gt;&lt;div&gt;+ initialize: void&lt;/div&gt;&lt;div&gt;&lt;br&gt;&lt;/div&gt;&lt;div&gt;+ sense() : struct Percept&lt;/div&gt;&lt;div&gt;&lt;br&gt;&lt;/div&gt;+ goForward(): bool&lt;div&gt;+ turnLeft() : void&lt;/div&gt;&lt;div&gt;+ turnRight() : void&lt;/div&gt;&lt;div&gt;&lt;br&gt;&lt;/div&gt;&lt;div&gt;+ shotArrow() : bool&lt;/div&gt;&lt;div&gt;&lt;br&gt;&lt;/div&gt;&lt;div&gt;+ grabGold() : void&lt;/div&gt;&lt;div&gt;+ climb() : void&lt;/div&gt;&lt;div&gt;&lt;br&gt;&lt;/div&gt;&lt;div&gt;+ backtrackTostart()&lt;/div&gt;" style="text;strokeColor=none;fillColor=none;align=left;verticalAlign=top;spacingLeft=4;spacingRight=4;overflow=hidden;rotatable=0;points=[[0,0.5],[1,0.5]];portConstraint=eastwest;whiteSpace=wrap;html=1;" vertex="1" parent="i5hhmeobfidiu1D_hB9L-18">
          <mxGeometry y="205" width="190" height="255" as="geometry" />
        </mxCell>
        <mxCell id="i5hhmeobfidiu1D_hB9L-27" value="" style="shape=note;whiteSpace=wrap;html=1;backgroundOutline=1;fontColor=#000000;darkOpacity=0.05;fillColor=#FFF9B2;strokeColor=none;fillStyle=solid;direction=west;gradientDirection=north;gradientColor=#FFF2A1;shadow=1;size=20;pointerEvents=1;" vertex="1" parent="1">
          <mxGeometry x="850" y="480" width="140" height="160" as="geometry" />
        </mxCell>
        <mxCell id="i5hhmeobfidiu1D_hB9L-28" value="&amp;lt;&amp;lt;struct&amp;gt;&amp;gt; Cell" style="swimlane;fontStyle=0;childLayout=stackLayout;horizontal=1;startSize=26;fillColor=none;horizontalStack=0;resizeParent=1;resizeParentMax=0;resizeLast=0;collapsible=1;marginBottom=0;whiteSpace=wrap;html=1;" vertex="1" parent="1">
          <mxGeometry x="344" y="-190" width="140" height="130" as="geometry" />
        </mxCell>
        <mxCell id="i5hhmeobfidiu1D_hB9L-29" value="+ hasWumpus: bool" style="text;strokeColor=none;fillColor=none;align=left;verticalAlign=top;spacingLeft=4;spacingRight=4;overflow=hidden;rotatable=0;points=[[0,0.5],[1,0.5]];portConstraint=eastwest;whiteSpace=wrap;html=1;" vertex="1" parent="i5hhmeobfidiu1D_hB9L-28">
          <mxGeometry y="26" width="140" height="26" as="geometry" />
        </mxCell>
        <mxCell id="i5hhmeobfidiu1D_hB9L-31" value="+ hasPit: bool" style="text;strokeColor=none;fillColor=none;align=left;verticalAlign=top;spacingLeft=4;spacingRight=4;overflow=hidden;rotatable=0;points=[[0,0.5],[1,0.5]];portConstraint=eastwest;whiteSpace=wrap;html=1;" vertex="1" parent="i5hhmeobfidiu1D_hB9L-28">
          <mxGeometry y="52" width="140" height="26" as="geometry" />
        </mxCell>
        <mxCell id="i5hhmeobfidiu1D_hB9L-33" value="+ hasGold: bool" style="text;strokeColor=none;fillColor=none;align=left;verticalAlign=top;spacingLeft=4;spacingRight=4;overflow=hidden;rotatable=0;points=[[0,0.5],[1,0.5]];portConstraint=eastwest;whiteSpace=wrap;html=1;" vertex="1" parent="i5hhmeobfidiu1D_hB9L-28">
          <mxGeometry y="78" width="140" height="26" as="geometry" />
        </mxCell>
        <mxCell id="i5hhmeobfidiu1D_hB9L-35" value="+ isWall: bool" style="text;strokeColor=none;fillColor=none;align=left;verticalAlign=top;spacingLeft=4;spacingRight=4;overflow=hidden;rotatable=0;points=[[0,0.5],[1,0.5]];portConstraint=eastwest;whiteSpace=wrap;html=1;" vertex="1" parent="i5hhmeobfidiu1D_hB9L-28">
          <mxGeometry y="104" width="140" height="26" as="geometry" />
        </mxCell>
        <mxCell id="i5hhmeobfidiu1D_hB9L-36" value="&amp;lt;&amp;lt;enum&amp;gt;&amp;gt; Direction" style="swimlane;fontStyle=0;childLayout=stackLayout;horizontal=1;startSize=26;fillColor=none;horizontalStack=0;resizeParent=1;resizeParentMax=0;resizeLast=0;collapsible=1;marginBottom=0;whiteSpace=wrap;html=1;" vertex="1" parent="1">
          <mxGeometry x="760" y="-190" width="140" height="130" as="geometry" />
        </mxCell>
        <mxCell id="i5hhmeobfidiu1D_hB9L-37" value="+ NORTH" style="text;strokeColor=none;fillColor=none;align=left;verticalAlign=top;spacingLeft=4;spacingRight=4;overflow=hidden;rotatable=0;points=[[0,0.5],[1,0.5]];portConstraint=eastwest;whiteSpace=wrap;html=1;" vertex="1" parent="i5hhmeobfidiu1D_hB9L-36">
          <mxGeometry y="26" width="140" height="26" as="geometry" />
        </mxCell>
        <mxCell id="i5hhmeobfidiu1D_hB9L-39" value="+ EAST" style="text;strokeColor=none;fillColor=none;align=left;verticalAlign=top;spacingLeft=4;spacingRight=4;overflow=hidden;rotatable=0;points=[[0,0.5],[1,0.5]];portConstraint=eastwest;whiteSpace=wrap;html=1;" vertex="1" parent="i5hhmeobfidiu1D_hB9L-36">
          <mxGeometry y="52" width="140" height="26" as="geometry" />
        </mxCell>
        <mxCell id="i5hhmeobfidiu1D_hB9L-38" value="+ SOUTH" style="text;strokeColor=none;fillColor=none;align=left;verticalAlign=top;spacingLeft=4;spacingRight=4;overflow=hidden;rotatable=0;points=[[0,0.5],[1,0.5]];portConstraint=eastwest;whiteSpace=wrap;html=1;" vertex="1" parent="i5hhmeobfidiu1D_hB9L-36">
          <mxGeometry y="78" width="140" height="26" as="geometry" />
        </mxCell>
        <mxCell id="i5hhmeobfidiu1D_hB9L-40" value="+ WEST" style="text;strokeColor=none;fillColor=none;align=left;verticalAlign=top;spacingLeft=4;spacingRight=4;overflow=hidden;rotatable=0;points=[[0,0.5],[1,0.5]];portConstraint=eastwest;whiteSpace=wrap;html=1;" vertex="1" parent="i5hhmeobfidiu1D_hB9L-36">
          <mxGeometry y="104" width="140" height="26" as="geometry" />
        </mxCell>
        <mxCell id="i5hhmeobfidiu1D_hB9L-42" value="&amp;lt;&amp;lt;struct&amp;gt;&amp;gt; Percept" style="swimlane;fontStyle=0;childLayout=stackLayout;horizontal=1;startSize=26;fillColor=none;horizontalStack=0;resizeParent=1;resizeParentMax=0;resizeLast=0;collapsible=1;marginBottom=0;whiteSpace=wrap;html=1;" vertex="1" parent="1">
          <mxGeometry x="610" y="-190" width="140" height="130" as="geometry" />
        </mxCell>
        <mxCell id="i5hhmeobfidiu1D_hB9L-43" value="+ Stench: bool" style="text;strokeColor=none;fillColor=none;align=left;verticalAlign=top;spacingLeft=4;spacingRight=4;overflow=hidden;rotatable=0;points=[[0,0.5],[1,0.5]];portConstraint=eastwest;whiteSpace=wrap;html=1;" vertex="1" parent="i5hhmeobfidiu1D_hB9L-42">
          <mxGeometry y="26" width="140" height="26" as="geometry" />
        </mxCell>
        <mxCell id="i5hhmeobfidiu1D_hB9L-44" value="+ Breeze: bool" style="text;strokeColor=none;fillColor=none;align=left;verticalAlign=top;spacingLeft=4;spacingRight=4;overflow=hidden;rotatable=0;points=[[0,0.5],[1,0.5]];portConstraint=eastwest;whiteSpace=wrap;html=1;" vertex="1" parent="i5hhmeobfidiu1D_hB9L-42">
          <mxGeometry y="52" width="140" height="26" as="geometry" />
        </mxCell>
        <mxCell id="i5hhmeobfidiu1D_hB9L-45" value="+ Glitter: bool" style="text;strokeColor=none;fillColor=none;align=left;verticalAlign=top;spacingLeft=4;spacingRight=4;overflow=hidden;rotatable=0;points=[[0,0.5],[1,0.5]];portConstraint=eastwest;whiteSpace=wrap;html=1;" vertex="1" parent="i5hhmeobfidiu1D_hB9L-42">
          <mxGeometry y="78" width="140" height="26" as="geometry" />
        </mxCell>
        <mxCell id="i5hhmeobfidiu1D_hB9L-46" value="+ Scream: bool" style="text;strokeColor=none;fillColor=none;align=left;verticalAlign=top;spacingLeft=4;spacingRight=4;overflow=hidden;rotatable=0;points=[[0,0.5],[1,0.5]];portConstraint=eastwest;whiteSpace=wrap;html=1;" vertex="1" parent="i5hhmeobfidiu1D_hB9L-42">
          <mxGeometry y="104" width="140" height="26" as="geometry" />
        </mxCell>
        <mxCell id="i5hhmeobfidiu1D_hB9L-49" value="" style="whiteSpace=wrap;html=1;" vertex="1" parent="1">
          <mxGeometry x="100" y="90" width="120" height="60" as="geometry" />
        </mxCell>
        <mxCell id="i5hhmeobfidiu1D_hB9L-51" value="Environment" style="swimlane;fontStyle=1;align=center;verticalAlign=top;childLayout=stackLayout;horizontal=1;startSize=26;horizontalStack=0;resizeParent=1;resizeParentMax=0;resizeLast=0;collapsible=1;marginBottom=0;whiteSpace=wrap;html=1;" vertex="1" parent="1">
          <mxGeometry x="1144" y="20" width="160" height="200" as="geometry" />
        </mxCell>
        <mxCell id="i5hhmeobfidiu1D_hB9L-52" value="- grid[6][6]: struct Cell" style="text;strokeColor=none;fillColor=none;align=left;verticalAlign=top;spacingLeft=4;spacingRight=4;overflow=hidden;rotatable=0;points=[[0,0.5],[1,0.5]];portConstraint=eastwest;whiteSpace=wrap;html=1;" vertex="1" parent="i5hhmeobfidiu1D_hB9L-51">
          <mxGeometry y="26" width="160" height="26" as="geometry" />
        </mxCell>
        <mxCell id="i5hhmeobfidiu1D_hB9L-53" value="" style="line;strokeWidth=1;fillColor=none;align=left;verticalAlign=middle;spacingTop=-1;spacingLeft=3;spacingRight=3;rotatable=0;labelPosition=right;points=[];portConstraint=eastwest;strokeColor=inherit;" vertex="1" parent="i5hhmeobfidiu1D_hB9L-51">
          <mxGeometry y="52" width="160" height="8" as="geometry" />
        </mxCell>
        <mxCell id="i5hhmeobfidiu1D_hB9L-54" value="- initialize: void&lt;div&gt;&lt;div&gt;- getCellInfo: Cell&lt;/div&gt;&lt;/div&gt;&lt;div&gt;+ getPercept: Percept&lt;/div&gt;&lt;div&gt;&lt;br&gt;&lt;/div&gt;&lt;div&gt;##Debug&lt;/div&gt;&lt;div&gt;+ printGrid: void&lt;/div&gt;" style="text;strokeColor=none;fillColor=none;align=left;verticalAlign=top;spacingLeft=4;spacingRight=4;overflow=hidden;rotatable=0;points=[[0,0.5],[1,0.5]];portConstraint=eastwest;whiteSpace=wrap;html=1;" vertex="1" parent="i5hhmeobfidiu1D_hB9L-51">
          <mxGeometry y="60" width="160" height="140" as="geometry" />
        </mxCell>
        <mxCell id="i5hhmeobfidiu1D_hB9L-55" style="edgeStyle=orthogonalEdgeStyle;rounded=0;orthogonalLoop=1;jettySize=auto;html=1;exitX=0.25;exitY=0;exitDx=0;exitDy=0;entryX=0.75;entryY=0;entryDx=0;entryDy=0;" edge="1" parent="1" source="i5hhmeobfidiu1D_hB9L-56" target="i5hhmeobfidiu1D_hB9L-51">
          <mxGeometry relative="1" as="geometry" />
        </mxCell>
        <mxCell id="i5hhmeobfidiu1D_hB9L-56" value="Agent" style="swimlane;fontStyle=1;align=center;verticalAlign=top;childLayout=stackLayout;horizontal=1;startSize=26;horizontalStack=0;resizeParent=1;resizeParentMax=0;resizeLast=0;collapsible=1;marginBottom=0;whiteSpace=wrap;html=1;" vertex="1" parent="1">
          <mxGeometry x="1440" y="20" width="190" height="390" as="geometry" />
        </mxCell>
        <mxCell id="i5hhmeobfidiu1D_hB9L-57" value="&lt;div&gt;## 위치/방향&lt;/div&gt;&lt;div&gt;- location : pair&amp;lt;int, int&amp;gt;&lt;/div&gt;&lt;div&gt;&lt;div&gt;- direction : &amp;lt;&amp;lt;enum&amp;gt;&amp;gt; Direction&lt;/div&gt;&lt;div&gt;&lt;br&gt;&lt;/div&gt;&lt;/div&gt;- arrows: int&lt;div&gt;- hasgold: bool&lt;/div&gt;&lt;div&gt;&lt;br&gt;&lt;/div&gt;&lt;div&gt;## 내부 모델&lt;/div&gt;&lt;div&gt;- visited[6][6] : bool&lt;br&gt;&lt;div&gt;- possibleWumpus[6][6] : int&amp;nbsp;&lt;/div&gt;&lt;/div&gt;&lt;div&gt;- possiblePit[6][6] : int&lt;/div&gt;" style="text;strokeColor=none;fillColor=none;align=left;verticalAlign=top;spacingLeft=4;spacingRight=4;overflow=hidden;rotatable=0;points=[[0,0.5],[1,0.5]];portConstraint=eastwest;whiteSpace=wrap;html=1;" vertex="1" parent="i5hhmeobfidiu1D_hB9L-56">
          <mxGeometry y="26" width="190" height="171" as="geometry" />
        </mxCell>
        <mxCell id="i5hhmeobfidiu1D_hB9L-58" value="" style="line;strokeWidth=1;fillColor=none;align=left;verticalAlign=middle;spacingTop=-1;spacingLeft=3;spacingRight=3;rotatable=0;labelPosition=right;points=[];portConstraint=eastwest;strokeColor=inherit;" vertex="1" parent="i5hhmeobfidiu1D_hB9L-56">
          <mxGeometry y="197" width="190" height="8" as="geometry" />
        </mxCell>
        <mxCell id="i5hhmeobfidiu1D_hB9L-59" value="&lt;div&gt;- initialize: void&lt;/div&gt;&lt;div&gt;&lt;br&gt;&lt;/div&gt;&lt;div&gt;- sense() : struct Percept&lt;/div&gt;&lt;div&gt;&lt;br&gt;&lt;/div&gt;- goForward(): void&lt;div&gt;-turnLeft() : void&lt;/div&gt;&lt;div&gt;- turnRight() : void&lt;/div&gt;&lt;div&gt;&lt;br&gt;&lt;/div&gt;&lt;div&gt;- shotArrow() : void&lt;/div&gt;&lt;div&gt;&lt;br&gt;&lt;/div&gt;&lt;div&gt;- grabGold() : void&lt;/div&gt;&lt;div&gt;- climb() : void&lt;/div&gt;" style="text;strokeColor=none;fillColor=none;align=left;verticalAlign=top;spacingLeft=4;spacingRight=4;overflow=hidden;rotatable=0;points=[[0,0.5],[1,0.5]];portConstraint=eastwest;whiteSpace=wrap;html=1;" vertex="1" parent="i5hhmeobfidiu1D_hB9L-56">
          <mxGeometry y="205" width="190" height="185" as="geometry" />
        </mxCell>
        <mxCell id="i5hhmeobfidiu1D_hB9L-60" value="" style="shape=note;whiteSpace=wrap;html=1;backgroundOutline=1;fontColor=#000000;darkOpacity=0.05;fillColor=#FFF9B2;strokeColor=none;fillStyle=solid;direction=west;gradientDirection=north;gradientColor=#FFF2A1;shadow=1;size=20;pointerEvents=1;" vertex="1" parent="1">
          <mxGeometry x="1660" y="410" width="140" height="160" as="geometry" />
        </mxCell>
        <mxCell id="i5hhmeobfidiu1D_hB9L-61" value="&amp;lt;&amp;lt;struct&amp;gt;&amp;gt; Cell" style="swimlane;fontStyle=0;childLayout=stackLayout;horizontal=1;startSize=26;fillColor=none;horizontalStack=0;resizeParent=1;resizeParentMax=0;resizeLast=0;collapsible=1;marginBottom=0;whiteSpace=wrap;html=1;" vertex="1" parent="1">
          <mxGeometry x="1154" y="-260" width="140" height="130" as="geometry" />
        </mxCell>
        <mxCell id="i5hhmeobfidiu1D_hB9L-62" value="+ hasWumpus: bool" style="text;strokeColor=none;fillColor=none;align=left;verticalAlign=top;spacingLeft=4;spacingRight=4;overflow=hidden;rotatable=0;points=[[0,0.5],[1,0.5]];portConstraint=eastwest;whiteSpace=wrap;html=1;" vertex="1" parent="i5hhmeobfidiu1D_hB9L-61">
          <mxGeometry y="26" width="140" height="26" as="geometry" />
        </mxCell>
        <mxCell id="i5hhmeobfidiu1D_hB9L-63" value="+ hasPit: bool" style="text;strokeColor=none;fillColor=none;align=left;verticalAlign=top;spacingLeft=4;spacingRight=4;overflow=hidden;rotatable=0;points=[[0,0.5],[1,0.5]];portConstraint=eastwest;whiteSpace=wrap;html=1;" vertex="1" parent="i5hhmeobfidiu1D_hB9L-61">
          <mxGeometry y="52" width="140" height="26" as="geometry" />
        </mxCell>
        <mxCell id="i5hhmeobfidiu1D_hB9L-64" value="+ hasGold: bool" style="text;strokeColor=none;fillColor=none;align=left;verticalAlign=top;spacingLeft=4;spacingRight=4;overflow=hidden;rotatable=0;points=[[0,0.5],[1,0.5]];portConstraint=eastwest;whiteSpace=wrap;html=1;" vertex="1" parent="i5hhmeobfidiu1D_hB9L-61">
          <mxGeometry y="78" width="140" height="26" as="geometry" />
        </mxCell>
        <mxCell id="i5hhmeobfidiu1D_hB9L-65" value="+ isWall: bool" style="text;strokeColor=none;fillColor=none;align=left;verticalAlign=top;spacingLeft=4;spacingRight=4;overflow=hidden;rotatable=0;points=[[0,0.5],[1,0.5]];portConstraint=eastwest;whiteSpace=wrap;html=1;" vertex="1" parent="i5hhmeobfidiu1D_hB9L-61">
          <mxGeometry y="104" width="140" height="26" as="geometry" />
        </mxCell>
        <mxCell id="i5hhmeobfidiu1D_hB9L-66" value="&amp;lt;&amp;lt;enum&amp;gt;&amp;gt; Direction" style="swimlane;fontStyle=0;childLayout=stackLayout;horizontal=1;startSize=26;fillColor=none;horizontalStack=0;resizeParent=1;resizeParentMax=0;resizeLast=0;collapsible=1;marginBottom=0;whiteSpace=wrap;html=1;" vertex="1" parent="1">
          <mxGeometry x="1570" y="-260" width="140" height="130" as="geometry" />
        </mxCell>
        <mxCell id="i5hhmeobfidiu1D_hB9L-67" value="+ NORTH" style="text;strokeColor=none;fillColor=none;align=left;verticalAlign=top;spacingLeft=4;spacingRight=4;overflow=hidden;rotatable=0;points=[[0,0.5],[1,0.5]];portConstraint=eastwest;whiteSpace=wrap;html=1;" vertex="1" parent="i5hhmeobfidiu1D_hB9L-66">
          <mxGeometry y="26" width="140" height="26" as="geometry" />
        </mxCell>
        <mxCell id="i5hhmeobfidiu1D_hB9L-68" value="+ EAST" style="text;strokeColor=none;fillColor=none;align=left;verticalAlign=top;spacingLeft=4;spacingRight=4;overflow=hidden;rotatable=0;points=[[0,0.5],[1,0.5]];portConstraint=eastwest;whiteSpace=wrap;html=1;" vertex="1" parent="i5hhmeobfidiu1D_hB9L-66">
          <mxGeometry y="52" width="140" height="26" as="geometry" />
        </mxCell>
        <mxCell id="i5hhmeobfidiu1D_hB9L-69" value="+ SOUTH" style="text;strokeColor=none;fillColor=none;align=left;verticalAlign=top;spacingLeft=4;spacingRight=4;overflow=hidden;rotatable=0;points=[[0,0.5],[1,0.5]];portConstraint=eastwest;whiteSpace=wrap;html=1;" vertex="1" parent="i5hhmeobfidiu1D_hB9L-66">
          <mxGeometry y="78" width="140" height="26" as="geometry" />
        </mxCell>
        <mxCell id="i5hhmeobfidiu1D_hB9L-70" value="+ WEST" style="text;strokeColor=none;fillColor=none;align=left;verticalAlign=top;spacingLeft=4;spacingRight=4;overflow=hidden;rotatable=0;points=[[0,0.5],[1,0.5]];portConstraint=eastwest;whiteSpace=wrap;html=1;" vertex="1" parent="i5hhmeobfidiu1D_hB9L-66">
          <mxGeometry y="104" width="140" height="26" as="geometry" />
        </mxCell>
        <mxCell id="i5hhmeobfidiu1D_hB9L-71" value="&amp;lt;&amp;lt;struct&amp;gt;&amp;gt; Percept" style="swimlane;fontStyle=0;childLayout=stackLayout;horizontal=1;startSize=26;fillColor=none;horizontalStack=0;resizeParent=1;resizeParentMax=0;resizeLast=0;collapsible=1;marginBottom=0;whiteSpace=wrap;html=1;" vertex="1" parent="1">
          <mxGeometry x="1420" y="-260" width="140" height="130" as="geometry" />
        </mxCell>
        <mxCell id="i5hhmeobfidiu1D_hB9L-72" value="+ Stench: bool" style="text;strokeColor=none;fillColor=none;align=left;verticalAlign=top;spacingLeft=4;spacingRight=4;overflow=hidden;rotatable=0;points=[[0,0.5],[1,0.5]];portConstraint=eastwest;whiteSpace=wrap;html=1;" vertex="1" parent="i5hhmeobfidiu1D_hB9L-71">
          <mxGeometry y="26" width="140" height="26" as="geometry" />
        </mxCell>
        <mxCell id="i5hhmeobfidiu1D_hB9L-73" value="+ Breeze: bool" style="text;strokeColor=none;fillColor=none;align=left;verticalAlign=top;spacingLeft=4;spacingRight=4;overflow=hidden;rotatable=0;points=[[0,0.5],[1,0.5]];portConstraint=eastwest;whiteSpace=wrap;html=1;" vertex="1" parent="i5hhmeobfidiu1D_hB9L-71">
          <mxGeometry y="52" width="140" height="26" as="geometry" />
        </mxCell>
        <mxCell id="i5hhmeobfidiu1D_hB9L-74" value="+ Glitter: bool" style="text;strokeColor=none;fillColor=none;align=left;verticalAlign=top;spacingLeft=4;spacingRight=4;overflow=hidden;rotatable=0;points=[[0,0.5],[1,0.5]];portConstraint=eastwest;whiteSpace=wrap;html=1;" vertex="1" parent="i5hhmeobfidiu1D_hB9L-71">
          <mxGeometry y="78" width="140" height="26" as="geometry" />
        </mxCell>
        <mxCell id="i5hhmeobfidiu1D_hB9L-75" value="+ Scream: bool" style="text;strokeColor=none;fillColor=none;align=left;verticalAlign=top;spacingLeft=4;spacingRight=4;overflow=hidden;rotatable=0;points=[[0,0.5],[1,0.5]];portConstraint=eastwest;whiteSpace=wrap;html=1;" vertex="1" parent="i5hhmeobfidiu1D_hB9L-71">
          <mxGeometry y="104" width="140" height="26" as="geometry" />
        </mxCell>
        <mxCell id="i5hhmeobfidiu1D_hB9L-76" value="" style="whiteSpace=wrap;html=1;" vertex="1" parent="1">
          <mxGeometry x="910" y="20" width="120" height="60" as="geometry" />
        </mxCell>
        <mxCell id="i5hhmeobfidiu1D_hB9L-78" value="&amp;lt;&amp;lt;struct&amp;gt;&amp;gt;Location" style="swimlane;fontStyle=0;childLayout=stackLayout;horizontal=1;startSize=26;fillColor=none;horizontalStack=0;resizeParent=1;resizeParentMax=0;resizeLast=0;collapsible=1;marginBottom=0;whiteSpace=wrap;html=1;" vertex="1" parent="1">
          <mxGeometry x="680" y="-310" width="140" height="78" as="geometry" />
        </mxCell>
        <mxCell id="i5hhmeobfidiu1D_hB9L-79" value="+ row: int" style="text;strokeColor=none;fillColor=none;align=left;verticalAlign=top;spacingLeft=4;spacingRight=4;overflow=hidden;rotatable=0;points=[[0,0.5],[1,0.5]];portConstraint=eastwest;whiteSpace=wrap;html=1;" vertex="1" parent="i5hhmeobfidiu1D_hB9L-78">
          <mxGeometry y="26" width="140" height="26" as="geometry" />
        </mxCell>
        <mxCell id="i5hhmeobfidiu1D_hB9L-80" value="+ col: int" style="text;strokeColor=none;fillColor=none;align=left;verticalAlign=top;spacingLeft=4;spacingRight=4;overflow=hidden;rotatable=0;points=[[0,0.5],[1,0.5]];portConstraint=eastwest;whiteSpace=wrap;html=1;" vertex="1" parent="i5hhmeobfidiu1D_hB9L-78">
          <mxGeometry y="52" width="140" height="26" as="geometry" />
        </mxCell>
      </root>
    </mxGraphModel>
  </diagram>
</mxfile>
